<svg width="14" height="14" viewBox="0 0 14 14" fill="none" xmlns="http://www.w3.org/2000/svg">
<path d="M1 6.33333C1 3.81933 1 2.562 1.78133 1.78133C2.56267 1.00067 3.81933 1 6.33333 1H7.66667C10.1807 1 11.438 1 12.2187 1.78133C12.9993 2.56267 13 3.81933 13 6.33333V7.66667C13 10.1807 13 11.438 12.2187 12.2187C11.4373 12.9993 10.1807 13 7.66667 13H6.33333C3.81933 13 2.562 13 1.78133 12.2187C1.00067 11.4373 1 10.1807 1 7.66667V6.33333Z" stroke="black" stroke-width="2"/>
<path d="M10 5C10.5523 5 11 4.55228 11 4C11 3.44772 10.5523 3 10 3C9.44772 3 9 3.44772 9 4C9 4.55228 9.44772 5 10 5Z" fill="black"/>
<path d="M7 9C8.10457 9 9 8.10457 9 7C9 5.89543 8.10457 5 7 5C5.89543 5 5 5.89543 5 7C5 8.10457 5.89543 9 7 9Z" stroke="black" stroke-width="2"/>
</svg>
