<svg width="14" height="13" viewBox="0 0 14 13" fill="none" xmlns="http://www.w3.org/2000/svg">
<path d="M6.342 10.8443H1.25689C0.898593 10.8443 0.599667 10.7192 0.360111 10.4689C0.120556 10.2186 0.000518519 9.90607 0 9.53121V1.31308C0 0.938767 0.120037 0.626476 0.360111 0.376211C0.600185 0.125945 0.898852 0.0005417 1.25611 0H12.7439C13.1017 0 13.4003 0.125403 13.6399 0.376211C13.8794 0.627018 13.9995 0.939308 14 1.31308V9.53121C14 9.90499 13.88 10.2173 13.6399 10.4681C13.3998 10.7189 13.1009 10.844 12.7431 10.8435H7.658L9.037 12.2841C9.06293 12.3112 9.09196 12.3852 9.12411 12.506V12.688C9.12411 12.7752 9.09507 12.8491 9.037 12.9098C8.97893 12.9705 8.90815 13.0005 8.82467 13H5.08822C5.03067 13 4.98089 12.9783 4.93889 12.935C4.89689 12.8917 4.87615 12.8394 4.87667 12.7782V12.4653C4.87667 12.4382 4.89741 12.3862 4.93889 12.3093L6.342 10.8443Z" fill="black"/>
</svg>
