<svg width="10" height="14" viewBox="0 0 10 14" fill="none" xmlns="http://www.w3.org/2000/svg">
<path d="M5 6.66659C4.55797 6.66659 4.13405 6.49099 3.82149 6.17843C3.50893 5.86587 3.33333 5.44195 3.33333 4.99992C3.33333 4.55789 3.50893 4.13397 3.82149 3.82141C4.13405 3.50885 4.55797 3.33325 5 3.33325C5.44203 3.33325 5.86595 3.50885 6.17851 3.82141C6.49107 4.13397 6.66667 4.55789 6.66667 4.99992C6.66667 5.21879 6.62356 5.43552 6.5398 5.63773C6.45604 5.83993 6.33327 6.02367 6.17851 6.17843C6.02375 6.33319 5.84001 6.45596 5.6378 6.53972C5.4356 6.62348 5.21887 6.66659 5 6.66659ZM5 0.333252C3.76232 0.333252 2.57534 0.824917 1.70017 1.70009C0.824997 2.57526 0.333332 3.76224 0.333332 4.99992C0.333332 8.49992 5 13.6666 5 13.6666C5 13.6666 9.66667 8.49992 9.66667 4.99992C9.66667 3.76224 9.175 2.57526 8.29983 1.70009C7.42466 0.824917 6.23768 0.333252 5 0.333252Z" fill="black"/>
</svg>
