<svg width="18" height="18" viewBox="0 0 18 18" fill="none" xmlns="http://www.w3.org/2000/svg">
<path d="M16.6502 0.740906C16.4078 0.579843 16.129 0.481777 15.8392 0.455585C15.5493 0.429394 15.2575 0.475905 14.9902 0.590906L11.4202 2.12091L6.67018 0.120906C6.48371 0.041131 6.283 0 6.08018 0C5.87736 0 5.67665 0.041131 5.49018 0.120906L1.13018 1.96091C0.790298 2.10873 0.501694 2.35372 0.30064 2.66509C0.0995865 2.97646 -0.0049463 3.3403 0.000179892 3.71091V14.9609C-0.00165963 15.2771 0.0750404 15.5888 0.223397 15.8681C0.371753 16.1474 0.587123 16.3854 0.85018 16.5609C1.09258 16.722 1.37132 16.82 1.66117 16.8462C1.95103 16.8724 2.24283 16.8259 2.51018 16.7109L6.08018 15.1809L10.8302 17.1809C11.0163 17.2617 11.2173 17.3026 11.4202 17.3009C11.6229 17.3012 11.8236 17.2604 12.0102 17.1809L16.3702 15.3109C16.7101 15.1631 16.9987 14.9181 17.1997 14.6067C17.4008 14.2954 17.5053 13.9315 17.5002 13.5609V2.34091C17.502 2.02469 17.4253 1.71297 17.277 1.43371C17.1286 1.15445 16.9132 0.916395 16.6502 0.740906ZM6.83018 1.74091L10.6702 3.38091V15.5109L6.83018 13.8709V1.74091ZM1.92018 15.3309C1.88218 15.3528 1.83906 15.3644 1.79518 15.3644C1.7513 15.3644 1.70818 15.3528 1.67018 15.3309C1.6144 15.2919 1.5695 15.2392 1.53975 15.178C1.51001 15.1167 1.49638 15.0489 1.50018 14.9809V3.71091C1.49896 3.63106 1.52227 3.55276 1.56698 3.48658C1.61169 3.42041 1.67564 3.36956 1.75018 3.34091L5.33018 1.79091V13.8709L1.92018 15.3309ZM16.0002 13.5909C16.0039 13.6674 15.985 13.7432 15.9459 13.809C15.9067 13.8748 15.8491 13.9276 15.7802 13.9609L12.1702 15.5109V3.43091L15.5802 1.97091C15.6182 1.94896 15.6613 1.93741 15.7052 1.93741C15.7491 1.93741 15.7922 1.94896 15.8302 1.97091C15.886 2.00995 15.9309 2.06259 15.9606 2.12384C15.9904 2.18509 16.004 2.25292 16.0002 2.32091V13.5909Z" fill="white"/>
</svg>
