<svg width="13" height="13" viewBox="0 0 13 13" fill="none" xmlns="http://www.w3.org/2000/svg">
<path d="M4.50251 0.777464C4.12117 0.237448 3.59316 -0.00589196 3.03315 0.00010821C2.5018 0.00544169 1.98446 0.232781 1.55245 0.535457C1.11181 0.845679 0.736086 1.23907 0.446423 1.69349C0.173084 2.12617 -0.0242541 2.63752 0.00241318 3.13686C0.131083 5.53893 1.48245 8.10567 3.38049 10.0051C5.2772 11.9024 7.80992 13.2212 10.3673 12.9691C10.8687 12.9198 11.3427 12.6645 11.73 12.3391C12.1306 11.9998 12.458 11.5824 12.692 11.1124C12.9187 10.6511 13.054 10.1191 12.9794 9.60105C12.902 9.06103 12.6 8.57835 12.0447 8.25834C11.9296 8.19159 11.8158 8.12268 11.7033 8.05167C11.6033 7.98967 11.4967 7.92233 11.3673 7.845C11.1032 7.68212 10.8244 7.54418 10.5346 7.43299C10.2366 7.32432 9.89596 7.25298 9.54129 7.30165C9.17395 7.35232 8.83261 7.52566 8.53727 7.83633C8.30993 8.07634 7.97526 8.15101 7.50458 8.015C7.0259 7.87633 6.48722 7.53232 6.01921 7.06698C5.5512 6.60296 5.19719 6.06028 5.04586 5.57027C4.89652 5.08492 4.96252 4.72824 5.19586 4.48224C5.5112 4.15023 5.6792 3.78088 5.71454 3.3902C5.74921 3.01019 5.65454 2.65285 5.5192 2.34084C5.31653 1.87483 4.97252 1.41148 4.70318 1.05014C4.63547 0.959797 4.56879 0.868677 4.50318 0.776797" fill="black"/>
</svg>
